<mxfile host="Electron" modified="2023-10-21T04:53:37.476Z" agent="Mozilla/5.0 (Macintosh; Intel Mac OS X 10_15_7) AppleWebKit/537.36 (KHTML, like Gecko) draw.io/22.0.3 Chrome/114.0.5735.289 Electron/25.8.4 Safari/537.36" etag="u8yi0T-5FlElpb4GzA_m" version="22.0.3" type="device">
  <diagram name="페이지-1" id="foqZhc7NjWLFWZ91exfe">
    <mxGraphModel dx="980" dy="894" grid="1" gridSize="10" guides="1" tooltips="1" connect="1" arrows="1" fold="1" page="1" pageScale="1" pageWidth="827" pageHeight="1169" math="0" shadow="0">
      <root>
        <mxCell id="0" />
        <mxCell id="1" parent="0" />
        <mxCell id="XlAvE9n8FlZEB_JRipX_-1" value="Client #1" style="rounded=1;whiteSpace=wrap;html=1;" vertex="1" parent="1">
          <mxGeometry x="130" y="120" width="90" height="30" as="geometry" />
        </mxCell>
        <mxCell id="XlAvE9n8FlZEB_JRipX_-2" value="Client #2" style="rounded=1;whiteSpace=wrap;html=1;" vertex="1" parent="1">
          <mxGeometry x="130" y="160" width="90" height="30" as="geometry" />
        </mxCell>
        <mxCell id="XlAvE9n8FlZEB_JRipX_-3" value="Client #3" style="rounded=1;whiteSpace=wrap;html=1;" vertex="1" parent="1">
          <mxGeometry x="130" y="200" width="90" height="30" as="geometry" />
        </mxCell>
        <mxCell id="XlAvE9n8FlZEB_JRipX_-5" value="Event Queue" style="verticalLabelPosition=bottom;html=1;verticalAlign=top;align=center;strokeColor=none;fillColor=#00BEF2;shape=mxgraph.azure.queue_generic;pointerEvents=1;" vertex="1" parent="1">
          <mxGeometry x="294" y="153.5" width="120" height="42.5" as="geometry" />
        </mxCell>
        <mxCell id="XlAvE9n8FlZEB_JRipX_-6" value="Redis Core Thread" style="rounded=1;whiteSpace=wrap;html=1;" vertex="1" parent="1">
          <mxGeometry x="430" y="156" width="120" height="40" as="geometry" />
        </mxCell>
        <mxCell id="XlAvE9n8FlZEB_JRipX_-7" style="edgeStyle=orthogonalEdgeStyle;rounded=0;orthogonalLoop=1;jettySize=auto;html=1;entryX=0;entryY=0.5;entryDx=0;entryDy=0;entryPerimeter=0;" edge="1" parent="1" source="XlAvE9n8FlZEB_JRipX_-1" target="XlAvE9n8FlZEB_JRipX_-5">
          <mxGeometry relative="1" as="geometry" />
        </mxCell>
        <mxCell id="XlAvE9n8FlZEB_JRipX_-8" style="edgeStyle=orthogonalEdgeStyle;rounded=0;orthogonalLoop=1;jettySize=auto;html=1;entryX=0;entryY=0.5;entryDx=0;entryDy=0;entryPerimeter=0;" edge="1" parent="1" source="XlAvE9n8FlZEB_JRipX_-2" target="XlAvE9n8FlZEB_JRipX_-5">
          <mxGeometry relative="1" as="geometry" />
        </mxCell>
        <mxCell id="XlAvE9n8FlZEB_JRipX_-9" style="edgeStyle=orthogonalEdgeStyle;rounded=0;orthogonalLoop=1;jettySize=auto;html=1;entryX=0;entryY=0.5;entryDx=0;entryDy=0;entryPerimeter=0;" edge="1" parent="1" source="XlAvE9n8FlZEB_JRipX_-3" target="XlAvE9n8FlZEB_JRipX_-5">
          <mxGeometry relative="1" as="geometry" />
        </mxCell>
      </root>
    </mxGraphModel>
  </diagram>
</mxfile>
